<svg width="24" height="24" viewBox="0 0 24 24" fill="none" xmlns="http://www.w3.org/2000/svg">
<path d="M9.66683 14.3334H14.3335V12H9.66683V14.3334ZM9.66683 10.8334H19.0002V8.50004H9.66683V10.8334ZM9.66683 7.33337H19.0002V5.00004H9.66683V7.33337ZM7.3335 19C6.69183 19 6.14272 18.7718 5.68616 18.3152C5.22883 17.8579 5.00016 17.3084 5.00016 16.6667V2.66671C5.00016 2.02504 5.22883 1.47554 5.68616 1.01821C6.14272 0.561652 6.69183 0.333374 7.3335 0.333374H21.3335C21.9752 0.333374 22.5247 0.561652 22.982 1.01821C23.4386 1.47554 23.6668 2.02504 23.6668 2.66671V16.6667C23.6668 17.3084 23.4386 17.8579 22.982 18.3152C22.5247 18.7718 21.9752 19 21.3335 19H7.3335ZM7.3335 16.6667H21.3335V2.66671H7.3335V16.6667ZM2.66683 23.6667C2.02516 23.6667 1.47605 23.4384 1.0195 22.9819C0.562163 22.5245 0.333496 21.975 0.333496 21.3334V5.00004H2.66683V21.3334H19.0002V23.6667H2.66683Z" fill="#DC143C"/>
</svg>
