<svg width="535" height="434" viewBox="0 0 535 434" fill="none" xmlns="http://www.w3.org/2000/svg">
<path opacity="0.25" fill-rule="evenodd" clip-rule="evenodd" d="M534.152 182.479L534.355 185.735L534.569 188.998L534.795 192.27L535.031 195.552L535.276 198.847L535.529 202.154L535.787 205.477L536.049 208.816L536.313 212.172L536.575 215.547L536.834 218.941L537.087 222.355L537.33 225.79L537.562 229.246L537.777 232.724L537.974 236.223L538.149 239.743L538.297 243.285L538.415 246.847L538.5 250.428L538.546 254.028L538.55 257.646L538.509 261.279L538.417 264.927L538.271 268.587L538.067 272.257L537.801 275.936L537.47 279.619L537.07 283.305L536.598 286.992L536.051 290.676L535.427 294.354L534.723 298.024L533.938 301.682L533.07 305.326L532.118 308.954L531.08 312.561L529.955 316.145L528.743 319.703L527.442 323.231L526.052 326.727L524.571 330.186L522.999 333.605L521.336 336.981L519.581 340.31L517.734 343.589L515.795 346.814L513.764 349.981L511.642 353.087L509.43 356.129L507.128 359.104L504.738 362.007L502.26 364.837L499.697 367.589L497.05 370.261L494.321 372.85L491.513 375.354L488.627 377.77L485.666 380.097L482.634 382.331L479.533 384.472L476.366 386.518L473.136 388.468L469.848 390.321L466.504 392.076L463.109 393.732L459.665 395.29L456.178 396.749L452.65 398.11L449.086 399.374L445.489 400.541L441.864 401.613L438.215 402.59L434.545 403.475L430.858 404.269L427.159 404.975L423.45 405.595L419.735 406.13L416.017 406.584L412.301 406.96L408.589 407.259L404.884 407.486L401.189 407.643L397.506 407.735L393.84 407.764L390.191 407.736L386.564 407.655L382.961 407.527L379.383 407.357L375.833 407.151L372.312 406.914L368.823 406.652L365.366 406.372L361.941 406.08L358.551 405.781L355.194 405.481L351.871 405.186L348.581 404.902L345.323 404.633L342.097 404.387L338.902 404.166L335.734 403.977L332.593 403.824L329.477 403.711L326.383 403.641L323.307 403.62L320.249 403.65L317.204 403.734L314.17 403.876L311.142 404.078L308.118 404.343L305.094 404.674L302.067 405.072L299.031 405.537L295.984 406.072L292.922 406.674L289.84 407.343L286.735 408.078L283.603 408.875L280.44 409.732L277.243 410.645L274.009 411.61L270.735 412.622L267.419 413.676L264.057 414.766L260.649 415.886L257.191 417.029L253.684 418.188L250.127 419.356L246.518 420.525L242.858 421.687L239.147 422.835L235.387 423.961L231.578 425.055L227.722 426.111L223.821 427.121L219.878 428.076L215.895 428.968L211.876 429.79L207.825 430.535L203.745 431.195L199.641 431.764L195.517 432.235L191.377 432.603L187.228 432.862L183.073 433.006L178.918 433.031L174.769 432.933L170.631 432.709L166.509 432.354L162.41 431.867L158.337 431.245L154.298 430.488L150.297 429.593L146.338 428.561L142.429 427.391L138.572 426.085L134.773 424.643L131.036 423.066L127.365 421.358L123.763 419.521L120.234 417.558L116.779 415.474L113.4 413.275L110.098 410.964L106.874 408.548L103.727 406.033L100.657 403.425L97.6625 400.731L94.7421 397.956L91.8936 395.109L89.1145 392.194L86.4018 389.218L83.7525 386.187L81.163 383.108L78.6297 379.985L76.1489 376.824L73.7167 373.63L71.3293 370.406L68.9826 367.158L66.6732 363.889L64.3973 360.601L62.1516 357.297L59.9331 353.98L57.739 350.651L55.567 347.31L53.4152 343.96L51.2822 340.599L49.1669 337.229L47.0687 333.848L44.9872 330.456L42.9224 327.052L40.8746 323.635L38.8445 320.205L36.8332 316.76L34.842 313.298L32.8727 309.82L30.9273 306.322L29.0082 302.803L27.118 299.264L25.2597 295.701L23.4364 292.114L21.6516 288.502L19.909 284.864L18.2122 281.199L16.5653 277.506L14.9723 273.785L13.4374 270.035L11.9647 266.257L10.5585 262.451L9.22299 258.617L7.96234 254.755L6.78064 250.867L5.68186 246.953L4.66986 243.014L3.74831 239.053L2.9207 235.071L2.1903 231.07L1.56016 227.052L1.03303 223.019L0.611416 218.973L0.297504 214.918L0.0931787 210.856L0 206.79L0.0191968 202.723L0.15166 198.658L0.397939 194.598L0.75824 190.546L1.23243 186.505L1.82004 182.479L2.52026 178.47L3.33198 174.482L4.25375 170.518L5.28385 166.58L6.42027 162.672L7.66071 158.796L9.00266 154.955L10.4433 151.152L11.9797 147.388L13.6086 143.667L15.3265 139.989L17.13 136.358L19.0153 132.774L20.9785 129.239L23.0157 125.755L25.123 122.322L27.2962 118.942L29.5312 115.615L31.824 112.341L34.1705 109.122L36.5666 105.957L39.0084 102.846L41.4919 99.7889L44.0134 96.7859L46.5691 93.8363L49.1555 90.9395L51.7691 88.0946L54.4065 85.3009L57.0645 82.5575L59.7402 79.8632L62.4306 77.2169L65.1328 74.6173L67.8442 72.0631L70.5622 69.5527L73.2844 67.0847L76.0087 64.6575L78.7333 62.2697L81.4566 59.9198L84.1775 57.6065L86.8952 55.3286L89.6091 53.085L92.3189 50.8748L95.0247 48.6973L97.7268 46.5519L100.426 44.4382L103.122 42.356L105.817 40.3053L108.512 38.2865L111.208 36.3L113.906 34.3465L116.608 32.4268L119.315 30.5422L122.03 28.6939L124.753 26.8835L127.487 25.1127L130.233 23.3833L132.992 21.6974L135.767 20.0572L138.558 18.4649L141.366 16.9229L144.194 15.4336L147.041 13.9996L149.908 12.6233L152.797 11.3073L155.707 10.0539L158.638 8.86572L161.59 7.74492L164.564 6.69375L167.558 5.71425L170.571 4.80831L173.603 3.97762L176.652 3.22366L179.717 2.54765L182.797 1.95057L185.888 1.43311L188.99 0.995669L192.1 0.638319L195.215 0.360823L198.334 0.162606L201.454 0.0427511L204.571 0L207.684 0.0327467L210.79 0.139067L213.885 0.316791L216.968 0.563529L220.035 0.876682L223.084 1.25345L226.114 1.69082L229.121 2.18563L232.103 2.73451L235.059 3.33395L237.987 3.98029L240.884 4.66974L243.75 5.39839L246.583 6.16223L249.382 6.95716L252.145 7.77902L254.873 8.62361L257.564 9.48669L260.219 10.364L262.836 11.2513L265.417 12.1444L267.96 13.039L270.468 13.9311L272.94 14.8167L275.377 15.6917L277.781 16.5523L280.152 17.3948L282.492 18.2157L284.803 19.0114L287.086 19.7787L289.344 20.5145L291.578 21.2159L293.791 21.88L295.984 22.5043L298.162 23.0865L300.325 23.6244L302.477 24.1163L304.621 24.5604L306.759 24.9554L308.895 25.3002L311.031 25.594L313.17 25.8362L315.315 26.0266L317.469 26.1652L319.636 26.2524L321.817 26.2887L324.016 26.2751L326.236 26.2129L328.48 26.1034L330.749 25.9486L333.046 25.7504L335.374 25.5112L337.735 25.2337L340.13 24.9206L342.562 24.5751L345.032 24.2005L347.542 23.8002L350.093 23.3781L352.685 22.938L355.32 22.484L357.998 22.0202L360.719 21.551L363.484 21.0808L366.292 20.6141L369.143 20.1554L372.035 19.7093L374.969 19.2805L377.943 18.8734L380.955 18.4928L384.004 18.143L387.088 17.8286L390.205 17.5538L393.353 17.323L396.529 17.1403L399.73 17.0095L402.955 16.9346L406.199 16.9192L409.46 16.9666L412.735 17.0802L416.021 17.2628L419.313 17.517L422.61 17.8452L425.908 18.2493L429.203 18.7311L432.492 19.2922L435.773 19.9338L439.043 20.657L442.297 21.4626L445.533 22.3511L448.748 23.3231L451.939 24.3788L455.103 25.5182L458.238 26.7413L461.339 28.0478L464.405 29.4373L467.433 30.9095L470.42 32.4637L473.362 34.0992L476.258 35.8154L479.104 37.6113L481.897 39.486L484.636 41.4388L487.315 43.4684L489.934 45.5741L492.488 47.7547L494.973 50.0092L497.388 52.3366L499.727 54.7354L501.989 57.2043L504.17 59.7415L506.268 62.3447L508.28 65.0119L510.204 67.7404L512.04 70.5274L513.786 73.3702L515.442 76.2655L517.006 79.2103L518.479 82.2011L519.863 85.2345L521.156 88.3071L522.362 91.4154L523.481 94.5559L524.516 97.7251L525.469 100.92L526.343 104.136L527.142 107.371L527.867 110.622L528.524 113.885L529.116 117.158L529.648 120.438L530.123 123.724L530.547 127.011L530.924 130.3L531.258 133.588L531.555 136.874L531.819 140.156L532.054 143.434L532.266 146.708L532.459 149.976L532.638 153.239L532.805 156.497L532.966 159.751L533.123 163L533.28 166.247L533.44 169.492L533.605 172.736L533.778 175.981L533.96 179.228L534.152 182.479Z" fill="url(#paint0_linear_103_4481)"/>
<defs>
<linearGradient id="paint0_linear_103_4481" x1="0" y1="0" x2="573.494" y2="52.6888" gradientUnits="userSpaceOnUse">
<stop stop-color="#5174FF"/>
<stop offset="1" stop-color="#D251FF"/>
</linearGradient>
</defs>
</svg>
