<svg width="1600" height="680" viewBox="0 0 1600 680" fill="none" xmlns="http://www.w3.org/2000/svg">
<path opacity="0.25" fill-rule="evenodd" clip-rule="evenodd" d="M-859 582.461L-843.173 574.647L-827.346 566.588L-811.519 558.294L-795.691 549.773L-779.864 541.033L-764.037 532.084L-748.21 522.935L-732.383 513.596L-716.556 504.076L-700.728 494.386L-684.901 484.535L-669.074 474.533L-653.247 464.392L-637.42 454.121L-621.593 443.732L-605.765 433.234L-589.938 422.639L-574.111 411.959L-558.284 401.203L-542.457 390.384L-526.63 379.513L-510.802 368.6L-494.975 357.658L-479.148 346.697L-463.321 335.729L-447.494 324.766L-431.667 313.819L-415.84 302.898L-400.012 292.017L-384.185 281.185L-368.358 270.415L-352.531 259.717L-336.704 249.102L-320.877 238.582L-305.049 228.168L-289.222 217.87L-273.395 207.699L-257.568 197.665L-241.741 187.78L-225.914 178.053L-210.086 168.495L-194.259 159.115L-178.432 149.923L-162.605 140.929L-146.778 132.143L-130.951 123.572L-115.123 115.227L-99.2963 107.115L-83.4691 99.2463L-67.642 91.6277L-51.8148 84.2675L-35.9876 77.1734L-20.1605 70.3527L-4.33331 63.8126L11.4938 57.56L27.321 51.6011L43.1482 45.9424L58.9753 40.5896L74.8025 35.5484L90.6296 30.8239L106.457 26.4211L122.284 22.3446L138.111 18.5986L153.938 15.1871L169.766 12.1135L185.593 9.38104L201.42 6.99261L217.247 4.95067L233.074 3.25735L248.901 1.91441L264.728 0.923247L280.556 0.284888L296.383 0L312.21 0.0688795L328.037 0.491455L343.864 1.26729L359.691 2.39557L375.519 3.87512L391.346 5.70441L407.173 7.88153L423 10.4042L438.827 13.2699L454.654 16.4754L470.482 20.0177L486.309 23.8928L502.136 28.0969L517.963 32.6255L533.79 37.4739L549.617 42.6371L565.444 48.1097L581.272 53.886L597.099 59.96L612.926 66.3254L628.753 72.9755L644.58 79.9035L660.407 87.1021L676.235 94.5639L692.062 102.281L707.889 110.245L723.716 118.449L739.543 126.883L755.37 135.539L771.198 144.407L787.025 153.479L802.852 162.745L818.679 172.196L834.506 181.821L850.333 191.611L866.161 201.555L881.988 211.643L897.815 221.865L913.642 232.21L929.469 242.666L945.296 253.225L961.124 263.873L976.951 274.6L992.778 285.396L1008.6 296.249L1024.43 307.147L1040.26 318.079L1056.09 329.034L1071.91 340L1087.74 350.966L1103.57 361.921L1119.4 372.854L1135.22 383.751L1151.05 394.604L1166.88 405.4L1182.7 416.127L1198.53 426.775L1214.36 437.334L1230.19 447.79L1246.01 458.135L1261.84 468.357L1277.67 478.445L1293.49 488.389L1309.32 498.179L1325.15 507.804L1340.98 517.255L1356.8 526.521L1372.63 535.593L1388.46 544.461L1404.28 553.117L1420.11 561.551L1435.94 569.755L1451.77 577.719L1467.59 585.436L1483.42 592.898L1499.25 600.096L1515.07 607.024L1530.9 613.675L1546.73 620.04L1562.56 626.114L1578.38 631.89L1594.21 637.363L1610.04 642.526L1625.86 647.375L1641.69 651.903L1657.52 656.107L1673.35 659.982L1689.17 663.525L1705 666.73L1720.83 669.596L1736.65 672.118L1752.48 674.296L1768.31 676.125L1784.14 677.604L1799.96 678.733L1815.79 679.509L1831.62 679.931L1847.44 680L1863.27 679.715L1879.1 679.077L1894.93 678.086L1910.75 676.743L1926.58 675.049L1942.41 673.007L1958.23 670.619L1974.06 667.887L1989.89 664.813L2005.72 661.401L2021.54 657.655L2037.37 653.579L2053.2 649.176L2069.02 644.452L2084.85 639.41L2100.68 634.058L2116.51 628.399L2132.33 622.44L2148.16 616.187L2163.99 609.647L2179.81 602.827L2195.64 595.733L2211.47 588.372L2227.3 580.754L2243.12 572.885L2258.95 564.773L2274.78 556.428L2290.6 547.857L2306.43 539.071L2322.26 530.077L2338.09 520.885L2353.91 511.505L2369.74 501.947L2385.57 492.22L2401.4 482.335L2417.22 472.301L2433.05 462.13L2448.88 451.832L2464.7 441.418L2480.53 430.898L2496.36 420.283L2512.19 409.585L2528.01 398.815L2543.84 387.983L2559.67 377.102L2575.49 366.181L2591.32 355.234L2607.15 344.271L2622.98 333.303L2638.8 322.342L2654.63 311.4L2670.46 300.487L2686.28 289.616L2702.11 278.797L2717.94 268.041L2733.77 257.361L2749.59 246.766L2765.42 236.268L2781.25 225.879L2797.07 215.608L2812.9 205.467L2828.73 195.465L2844.56 185.614L2860.38 175.924L2876.21 166.404L2892.04 157.065L2907.86 147.916L2923.69 138.967L2939.52 130.227L2955.35 121.706L2971.17 113.412L2987 105.353" fill="url(#paint0_linear_103_4470)"/>
<defs>
<linearGradient id="paint0_linear_103_4470" x1="-859" y1="0" x2="2657.28" y2="1469.15" gradientUnits="userSpaceOnUse">
<stop stop-color="#5174FF"/>
<stop offset="1" stop-color="#D251FF"/>
</linearGradient>
</defs>
</svg>
