<svg width="235" height="464" viewBox="0 0 235 464" fill="none" xmlns="http://www.w3.org/2000/svg">
<path opacity="0.25" fill-rule="evenodd" clip-rule="evenodd" d="M232.094 258.477L231.435 260.851L230.707 263.205L229.91 265.536L229.047 267.843L228.12 270.123L227.131 272.375L226.084 274.598L224.983 276.79L223.831 278.951L222.634 281.079L221.396 283.174L220.123 285.237L218.822 287.267L217.496 289.265L216.154 291.232L214.801 293.17L213.445 295.081L212.09 296.967L210.744 298.83L209.412 300.673L208.101 302.501L206.816 304.315L205.563 306.121L204.346 307.922L203.17 309.723L202.039 311.527L200.954 313.34L199.92 315.165L198.938 317.007L198.009 318.87L197.133 320.758L196.31 322.675L195.539 324.625L194.818 326.611L194.147 328.635L193.521 330.701L192.939 332.812L192.396 334.968L191.888 337.172L191.411 339.424L190.96 341.726L190.528 344.076L190.111 346.474L189.702 348.919L189.295 351.409L188.883 353.942L188.459 356.514L188.017 359.123L187.549 361.763L187.049 364.43L186.511 367.118L185.926 369.822L185.29 372.536L184.596 375.252L183.837 377.964L183.01 380.664L182.108 383.344L181.127 385.996L180.063 388.613L178.914 391.186L177.675 393.707L176.345 396.167L174.922 398.559L173.406 400.876L171.795 403.109L170.091 405.251L168.294 407.297L166.407 409.239L164.43 411.072L162.368 412.791L160.224 414.392L158.002 415.871L155.706 417.225L153.341 418.454L150.913 419.555L148.427 420.528L145.889 421.375L143.306 422.097L140.683 422.696L138.027 423.178L135.345 423.547L132.643 423.809L129.928 423.973L127.206 424.045L124.482 424.036L121.763 423.954L119.052 423.81L116.355 423.615L113.675 423.38L111.016 423.116L108.379 422.836L105.767 422.549L103.181 422.269L100.621 422.005L98.0872 421.769L95.5781 421.57L93.0922 421.418L90.6273 421.321L88.1804 421.286L85.7482 421.32L83.3269 421.428L80.9124 421.613L78.5002 421.88L76.0858 422.23L73.6644 422.665L71.2311 423.186L68.7811 423.795L66.3094 424.49L63.8111 425.272L61.2814 426.137L58.7154 427.084L56.1086 428.11L53.4567 429.212L50.7554 430.384L48.0009 431.623L45.1895 432.922L42.318 434.276L39.3836 435.679L36.3837 437.123L33.3162 438.602L30.1796 440.107L26.9725 441.631L23.6944 443.166L20.3449 444.703L16.9243 446.233L13.4332 447.748L9.87292 449.24L6.24507 450.699L2.55174 452.118L-1.20448 453.486L-5.02063 454.797L-8.89325 456.042L-12.8186 457.213L-16.7925 458.303L-20.8105 459.304L-24.8677 460.209L-28.9592 461.012L-33.0796 461.707L-37.2235 462.289L-41.3852 462.751L-45.5589 463.091L-49.7388 463.303L-53.9191 463.385L-58.0937 463.332L-62.2568 463.144L-66.4026 462.818L-70.5254 462.352L-74.6195 461.746L-78.6798 461L-82.7016 460.115L-86.6811 459.093L-90.6148 457.937L-94.5001 456.65L-98.3349 455.235L-102.118 453.699L-105.848 452.045L-109.525 450.279L-113.15 448.405L-116.722 446.43L-120.242 444.358L-123.712 442.195L-127.134 439.945L-130.508 437.613L-133.836 435.203L-137.119 432.72L-140.359 430.166L-143.557 427.545L-146.713 424.858L-149.828 422.108L-152.9 419.297L-155.929 416.424L-158.913 413.491L-161.848 410.496L-164.734 407.441L-167.565 404.325L-170.34 401.149L-173.055 397.911L-175.705 394.613L-178.289 391.254L-180.8 387.836L-183.236 384.357L-185.591 380.819L-187.863 377.224L-190.046 373.57L-192.136 369.861L-194.13 366.097L-196.021 362.279L-197.808 358.411L-199.485 354.493L-201.049 350.529L-202.497 346.521L-203.825 342.471L-205.029 338.383L-206.108 334.26L-207.059 330.106L-207.879 325.923L-208.568 321.716L-209.123 317.49L-209.544 313.246L-209.831 308.991L-209.983 304.727L-210 300.46L-209.883 296.193L-209.634 291.931L-209.254 287.677L-208.744 283.436L-208.107 279.212L-207.345 275.009L-206.462 270.83L-205.46 266.68L-204.343 262.561L-203.114 258.477L-201.777 254.431L-200.337 250.426L-198.797 246.465L-197.161 242.549L-195.435 238.682L-193.621 234.866L-191.725 231.102L-189.751 227.392L-187.703 223.737L-185.585 220.139L-183.4 216.599L-181.154 213.117L-178.849 209.695L-176.489 206.334L-174.077 203.033L-171.616 199.794L-169.109 196.616L-166.559 193.501L-163.969 190.447L-161.341 187.456L-158.679 184.527L-155.984 181.661L-153.259 178.856L-150.507 176.113L-147.731 173.431L-144.934 170.809L-142.119 168.247L-139.29 165.742L-136.45 163.294L-133.604 160.9L-130.756 158.558L-127.91 156.265L-125.071 154.018L-122.242 151.815L-119.428 149.652L-116.63 147.526L-113.853 145.434L-111.098 143.373L-108.368 141.339L-105.665 139.328L-102.991 137.338L-100.347 135.365L-97.7345 133.406L-95.1537 131.457L-92.6054 129.515L-90.09 127.578L-87.6073 125.641L-85.1571 123.702L-82.7388 121.758L-80.3518 119.806L-77.9949 117.844L-75.6669 115.87L-73.3664 113.88L-71.0916 111.872L-68.8408 109.846L-66.6118 107.799L-64.4025 105.729L-62.2105 103.636L-60.0332 101.518L-57.8679 99.3747L-55.7119 97.205L-53.5623 95.0088L-51.416 92.786L-49.2701 90.537L-47.1212 88.2621L-44.9664 85.9622L-42.8023 83.6383L-40.6256 81.2919L-38.4332 78.9245L-36.2218 76.5381L-33.9882 74.135L-31.7292 71.7178L-29.4417 69.2893L-27.1228 66.8527L-24.7695 64.4115L-22.3791 61.9694L-19.9489 59.5305L-17.4764 57.0988L-14.9597 54.6783L-12.3971 52.2724L-9.78725 49.8845L-7.12912 47.5176L-4.42192 45.1744L-1.66505 42.8575L1.14194 40.5694L3.99931 38.3125L6.90724 36.0891L9.86577 33.9016L12.8748 31.7524L15.9343 29.6438L19.044 27.5784L22.2036 25.5588L25.4127 23.5879L28.6709 21.6686L31.9774 19.804L35.3317 17.9976L38.7329 16.2527L42.1799 14.5732L45.6717 12.9629L49.207 11.4259L52.7841 9.96644L56.4015 8.58876L60.0572 7.29728L63.749 6.09638L67.4745 4.99048L71.2311 3.98394L75.0161 3.08109L78.8262 2.28615L82.6584 1.60322L86.5089 1.03627L90.3741 0.589053L94.2502 0.26512L98.1329 0.0677635L102.018 0L105.901 0.0645341L109.778 0.263735L113.643 0.59961L117.493 1.07379L121.322 1.68749L125.125 2.44152L128.897 3.33625L132.635 4.37162L136.332 5.54713L139.985 6.8618L143.589 8.31423L147.138 9.90258L150.63 11.6246L154.06 13.4775L157.424 15.4582L160.718 17.5632L163.939 19.7887L167.084 22.1304L170.149 24.5839L173.134 27.1443L176.034 29.8065L178.849 32.5653L181.576 35.4153L184.214 38.3507L186.763 41.3659L189.221 44.455L191.589 47.6122L193.866 50.8315L196.053 54.1072L198.15 57.4334L200.157 60.8043L202.077 64.2144L203.91 67.6582L205.657 71.1304L207.321 74.6259L208.902 78.1399L210.404 81.668L211.827 85.206L213.173 88.7501L214.445 92.2965L215.644 95.842L216.773 99.3834L217.833 102.918L218.826 106.442L219.754 109.954L220.62 113.451L221.426 116.931L222.174 120.392L222.867 123.831L223.506 127.246L224.096 130.637L224.637 134L225.134 137.334L225.59 140.638L226.009 143.908L226.393 147.145L226.747 150.345L227.077 153.507L227.385 156.63L227.678 159.712L227.959 162.753L228.231 165.753L228.499 168.711L228.766 171.628L229.033 174.505L229.304 177.344L229.581 180.145L229.863 182.91L230.153 185.641L230.451 188.34L230.756 191.011L231.068 193.654L231.386 196.272L231.709 198.868L232.033 201.445L232.358 204.004L232.679 206.548L232.995 209.079L233.301 211.6L233.595 214.111L233.871 216.616L234.126 219.114L234.356 221.608L234.556 224.098L234.722 226.586L234.85 229.071L234.936 231.553L234.975 234.033L234.963 236.51L234.897 238.983L234.774 241.451L234.59 243.914L234.343 246.369L234.031 248.816L233.651 251.252L233.202 253.675L232.683 256.084L232.094 258.477Z" fill="url(#paint0_linear_103_4482)"/>
<defs>
<linearGradient id="paint0_linear_103_4482" x1="-210" y1="0" x2="265.453" y2="33.7275" gradientUnits="userSpaceOnUse">
<stop stop-color="#5174FF"/>
<stop offset="1" stop-color="#D251FF"/>
</linearGradient>
</defs>
</svg>
