<svg width="77" height="77" viewBox="0 0 77 77" fill="none" xmlns="http://www.w3.org/2000/svg">
<path d="M9.08994 76.5778C6.77004 76.5778 4.78337 75.7525 3.12992 74.1019C1.47928 72.4484 0.653961 70.4617 0.653961 68.1418V9.09003C0.653961 6.77013 1.47928 4.78346 3.12992 3.13001C4.78337 1.47937 6.77004 0.654053 9.08994 0.654053H38.6158V9.09003H9.08994V68.1418H68.1418V38.6159H76.5777V68.1418C76.5777 70.4617 75.7524 72.4484 74.1018 74.1019C72.4483 75.7525 70.4616 76.5778 68.1418 76.5778H9.08994ZM28.9145 54.2225L23.0093 48.3173L62.2366 9.09003H47.0518V0.654053H76.5777V30.18H68.1418V14.9952L28.9145 54.2225Z" fill="white"/>
</svg>
