<svg width="20" height="20" viewBox="0 0 20 20" fill="none" xmlns="http://www.w3.org/2000/svg">
<path d="M11.9908 18.8513C11.6414 19.2069 11.2083 19.3847 10.6917 19.3847C10.1751 19.3847 9.74211 19.2069 9.39265 18.8513L1.37023 10.6881C1.20309 10.5181 1.0703 10.3171 0.971839 10.0852C0.872775 9.85326 0.823242 9.60589 0.823242 9.34306V2.71049C0.823242 2.20029 1.00192 1.76338 1.35929 1.39974C1.71604 1.03673 2.14512 0.855225 2.64652 0.855225H9.16474C9.42304 0.855225 9.66614 0.905317 9.89405 1.0055C10.122 1.1063 10.3195 1.24174 10.4866 1.4118L18.509 9.59816C18.8585 9.95376 19.0332 10.3904 19.0332 10.908C19.0332 11.4262 18.8585 11.8631 18.509 12.2187L11.9908 18.8513ZM10.6917 17.5526L17.21 10.92L9.16474 2.71049H2.64652V9.34306L10.6917 17.5526ZM4.92562 6.42102C5.30547 6.42102 5.62819 6.28559 5.89378 6.01472C6.15998 5.74447 6.29308 5.41609 6.29308 5.02957C6.29308 4.64306 6.15998 4.31468 5.89378 4.04443C5.62819 3.77356 5.30547 3.63812 4.92562 3.63812C4.54577 3.63812 4.22305 3.77356 3.95746 4.04443C3.69126 4.31468 3.55816 4.64306 3.55816 5.02957C3.55816 5.41609 3.69126 5.74447 3.95746 6.01472C4.22305 6.28559 4.54577 6.42102 4.92562 6.42102Z" fill="url(#paint0_linear_244_454)"/>
<defs>
<linearGradient id="paint0_linear_244_454" x1="0.823242" y1="0.855225" x2="20.2759" y2="2.26747" gradientUnits="userSpaceOnUse">
<stop stop-color="#5174FF"/>
<stop offset="1" stop-color="#D251FF"/>
</linearGradient>
</defs>
</svg>
