<svg width="24" height="24" viewBox="0 0 24 24" fill="none" xmlns="http://www.w3.org/2000/svg">
<path d="M14.3382 22.9668C13.8987 23.4141 13.3541 23.6377 12.7044 23.6377C12.0547 23.6377 11.5101 23.4141 11.0706 22.9668L0.9809 12.7002C0.770699 12.4863 0.603684 12.2335 0.479857 11.9418C0.355265 11.6502 0.292969 11.3391 0.292969 11.0085V2.66683C0.292969 2.02516 0.517693 1.47566 0.967141 1.01833C1.41583 0.561774 1.95547 0.333496 2.58607 0.333496H10.7839C11.1088 0.333496 11.4145 0.396496 11.7012 0.522496C11.9878 0.649274 12.2362 0.819607 12.4464 1.0335L22.5361 11.3293C22.9756 11.7766 23.1953 12.3257 23.1953 12.9767C23.1953 13.6284 22.9756 14.1779 22.5361 14.6252L14.3382 22.9668ZM12.7044 21.3335L20.9022 12.9918L10.7839 2.66683H2.58607V11.0085L12.7044 21.3335ZM5.45245 7.3335C5.93018 7.3335 6.33606 7.16316 6.67009 6.8225C7.00488 6.48261 7.17228 6.06961 7.17228 5.5835C7.17228 5.09738 7.00488 4.68439 6.67009 4.3445C6.33606 4.00383 5.93018 3.8335 5.45245 3.8335C4.97472 3.8335 4.56884 4.00383 4.23481 4.3445C3.90002 4.68439 3.73262 5.09738 3.73262 5.5835C3.73262 6.06961 3.90002 6.48261 4.23481 6.8225C4.56884 7.16316 4.97472 7.3335 5.45245 7.3335Z" fill="url(#paint0_linear_231_3757)"/>
<defs>
<linearGradient id="paint0_linear_231_3757" x1="0.292969" y1="0.333496" x2="24.7582" y2="2.10965" gradientUnits="userSpaceOnUse">
<stop stop-color="#5174FF"/>
<stop offset="1" stop-color="#D251FF"/>
</linearGradient>
</defs>
</svg>
